# xmcd
#
# Track frame offsets:
#	150
#	17574
#	31574
#	44854
#	57662
#	70482
#	83394
#	99069
#
# Disc length: 1519 seconds
#
# Revision: 0
# Processed by: cddbd v1.5.2PL0 Copyright (c) Steve Scherf et al.
# Submitted via: audiograbber 1.83.01
#
DISCID=5b05ed08
DTITLE=Various Artist - Texas Country Artist Vol. 14
DYEAR=2010
DGENRE=Country
TTITLE0=Billy Joe French - Fräulein
TTITLE1=Kim Carson - Driving nails in my coffin
TTITLE2=Chet Daniels - Losing you again
TTITLE3=Lynn Logan - For crying out loud
TTITLE4=Larry Youngblood - The heartache is on
TTITLE5=Liz Talley - More than satisfied
TTITLE6=Rick Stancil - Why do I miss you all the time
TTITLE7=Luann Stancil - Desperado
EXTD=
EXTT0=
EXTT1=
EXTT2=
EXTT3=
EXTT4=
EXTT5=
EXTT6=
EXTT7=
PLAYORDER=
